<svg width="70" height="29" viewBox="0 0 70 29" fill="none" xmlns="http://www.w3.org/2000/svg">
<g id="Group">
<path id="Vector" d="M3.97492 11.3695H0.87207V1.125H4.08254C5.80262 1.125 7.39972 1.58532 7.39972 3.61289C7.39972 5.14848 6.27832 5.71732 5.64889 5.91628V5.93166C6.24757 6.03928 7.69183 6.49959 7.69183 8.3273C7.69183 10.2934 6.57043 11.3687 3.97492 11.3687V11.3695ZM3.94417 2.47701H2.54604V5.34925H3.82118C5.06557 5.34925 5.67963 4.79669 5.67963 3.81365C5.67963 2.83061 5.00407 2.47701 3.94417 2.47701ZM3.91342 6.70036H2.54604V10.0022H3.85193C5.20395 10.0022 5.97174 9.49573 5.97174 8.34358C5.97174 7.19143 5.20394 6.70036 3.91342 6.70036Z" fill="#03318C"/>
<path id="Vector_2" d="M14.4643 11.3703L14.3567 10.3565H14.3259C14.0338 10.7562 13.1584 11.5855 11.9457 11.5855C10.4255 11.5855 9.53467 10.7409 9.53467 9.00541V3.69141H11.1779V8.48359C11.1779 9.31289 11.4392 10.1114 12.5597 10.1114C13.4505 10.1114 14.2798 9.32826 14.2798 8.48359V3.69141H15.923V9.48201C15.923 10.0807 15.9538 11.0022 15.9692 11.3712H14.4643V11.3703Z" fill="#03318C"/>
<path id="Vector_3" d="M20.1007 11.5687C19.2561 11.5687 18.4883 11.3842 17.7666 11.0315L17.8435 9.69488C18.519 10.0639 19.2262 10.3089 19.9787 10.3089C21.1001 10.3089 21.4528 9.83325 21.4528 9.31053C21.4528 8.69647 20.9915 8.43511 20.1622 8.12763L19.6712 7.94314C18.642 7.55879 17.782 6.97548 17.782 5.65422C17.782 4.33295 18.7958 3.48828 20.6388 3.48828C21.4835 3.48828 22.2513 3.71889 22.7279 3.97935L22.6357 5.31598C21.8986 4.90088 21.1462 4.74805 20.7157 4.74805C19.8249 4.74805 19.4559 5.08628 19.4559 5.57734C19.4559 6.09916 19.8557 6.39126 20.7465 6.71412L21.2529 6.89861C22.3128 7.29833 23.1267 7.85089 23.1267 9.18753C23.1267 10.6616 22.1129 11.5678 20.1007 11.5678V11.5687Z" fill="#03318C"/>
<path id="Vector_4" d="M25.7979 2.61566C25.1993 2.61566 24.7227 2.13996 24.7227 1.54038C24.7227 0.940786 25.1993 0.480469 25.7979 0.480469C26.3966 0.480469 26.8578 0.956161 26.8578 1.54038C26.8578 2.12459 26.3822 2.61566 25.7979 2.61566ZM24.9686 11.3698V3.69003H26.6119V11.3698H24.9686Z" fill="#03318C"/>
<path id="Vector_5" d="M33.7236 11.3699V6.56233C33.7236 5.76378 33.493 4.94986 32.2956 4.94986C31.3433 4.94986 30.4987 5.73304 30.4987 6.56233V11.3699H28.8555V3.69009H30.4372V4.68851H30.4526C30.7293 4.30416 31.6201 3.49023 32.9097 3.49023C34.4914 3.49023 35.3668 4.3349 35.3668 6.07036V11.369H33.7236V11.3699Z" fill="#03318C"/>
<path id="Vector_6" d="M43.4923 7.94419H38.7155V8.19018C38.7155 9.21934 39.2219 10.2331 40.7123 10.2331C41.5877 10.2331 42.3709 10.0025 43.0464 9.66518L43.1387 10.9864C42.54 11.3401 41.6185 11.5698 40.5432 11.5698C37.7632 11.5698 37.0723 9.94192 37.0723 7.54537C37.0723 5.14883 38.0399 3.49023 40.5124 3.49023C42.3555 3.49023 43.523 4.4579 43.523 7.06877C43.523 7.20714 43.5077 7.71358 43.4923 7.94419ZM40.4663 4.67313C39.2219 4.67313 38.7001 5.74841 38.7001 6.79295H41.9567C41.9567 5.73304 41.7415 4.67313 40.4672 4.67313H40.4663Z" fill="#03318C"/>
<path id="Vector_7" d="M47.1925 11.5687C46.3479 11.5687 45.5801 11.3842 44.8584 11.0315L44.9353 9.69488C45.6108 10.0639 46.318 10.3089 47.0705 10.3089C48.1919 10.3089 48.5446 9.83325 48.5446 9.31053C48.5446 8.69647 48.0833 8.43511 47.254 8.12763L46.763 7.94314C45.7338 7.55879 44.8738 6.97548 44.8738 5.65422C44.8738 4.33295 45.8876 3.48828 47.7306 3.48828C48.5753 3.48828 49.3431 3.71889 49.8197 3.97935L49.7275 5.31598C48.9904 4.90088 48.238 4.74805 47.8075 4.74805C46.9167 4.74805 46.5477 5.08628 46.5477 5.57734C46.5477 6.09916 46.9475 6.39126 47.8382 6.71412L48.3447 6.89861C49.4046 7.29833 50.2185 7.85089 50.2185 9.18753C50.2185 10.6616 49.2047 11.5678 47.1925 11.5678V11.5687Z" fill="#03318C"/>
<path id="Vector_8" d="M53.9513 11.5687C53.1067 11.5687 52.3389 11.3842 51.6172 11.0315L51.6941 9.69488C52.3696 10.0639 53.0768 10.3089 53.8293 10.3089C54.9507 10.3089 55.3033 9.83325 55.3033 9.31053C55.3033 8.69647 54.8421 8.43511 54.0128 8.12763L53.5218 7.94314C52.4926 7.55879 51.6326 6.97548 51.6326 5.65422C51.6326 4.33295 52.6463 3.48828 54.4894 3.48828C55.3341 3.48828 56.1019 3.71889 56.5785 3.97935L56.4863 5.31598C55.7492 4.90088 54.9968 4.74805 54.5663 4.74805C53.6755 4.74805 53.3065 5.08628 53.3065 5.57734C53.3065 6.09916 53.7063 6.39126 54.597 6.71412L55.1035 6.89861C56.1634 7.29833 56.9773 7.85089 56.9773 9.18753C56.9773 10.6616 55.9635 11.5678 53.9513 11.5678V11.5687Z" fill="#03318C"/>
<path id="Vector_9" d="M5.11102 28.7937L5.01877 27.7184H5.0034C4.77279 28.1335 3.98961 28.9936 2.62313 28.9936C0.979914 28.9936 0.288086 27.9952 0.288086 26.7662C0.288086 25.1383 1.6401 24.2321 3.71289 24.2321C4.2347 24.2321 4.72667 24.2783 4.91116 24.309V23.5105C4.91116 22.6043 4.2971 22.2507 3.31406 22.2507C2.50014 22.2507 1.73235 22.4813 0.979016 22.834L0.902137 21.4974C1.62381 21.1438 2.51461 20.9141 3.60526 20.9141C5.30997 20.9141 6.55437 21.4359 6.55437 23.5096V26.6585C6.55437 27.3033 6.60049 28.3632 6.61587 28.7937H5.11102ZM4.91116 25.3843C4.78817 25.3535 4.40472 25.3074 3.89738 25.3074C3.02196 25.3074 1.96205 25.6303 1.96205 26.6441C1.96205 27.3504 2.43864 27.7501 3.12957 27.7501C4.06648 27.7501 4.91116 26.8593 4.91116 25.8148V25.3843Z" fill="#03318C"/>
<path id="Vector_10" d="M10.7311 28.9925C9.88645 28.9925 9.11865 28.8081 8.39697 28.4554L8.47385 27.1187C9.14941 27.4877 9.85661 27.7328 10.609 27.7328C11.7304 27.7328 12.0831 27.2571 12.0831 26.7344C12.0831 26.1203 11.6219 25.8589 10.7926 25.5515L10.3016 25.367C9.2724 24.9826 8.41235 24.3993 8.41235 23.078C8.41235 21.7568 9.42613 20.9121 11.2692 20.9121C12.1139 20.9121 12.8817 21.1427 13.3583 21.4032L13.266 22.7398C12.529 22.3247 11.7766 22.1719 11.3461 22.1719C10.4553 22.1719 10.0863 22.5101 10.0863 23.0012C10.0863 23.523 10.486 23.8151 11.3768 24.1379L11.8833 24.3224C12.9432 24.7222 13.7571 25.2747 13.7571 26.6114C13.7571 28.0855 12.7433 28.9916 10.7311 28.9916V28.9925Z" fill="#03318C"/>
<path id="Vector_11" d="M24.0175 28.7941L23.9099 27.7803H23.8792C23.5871 28.1801 22.7117 29.0094 21.4989 29.0094C19.9787 29.0094 19.0879 28.1647 19.0879 26.4292V21.1152H20.7311V25.9074C20.7311 26.7367 20.9925 27.5353 22.113 27.5353C23.0038 27.5353 23.833 26.7521 23.833 25.9074V21.1152H25.4763V26.9058C25.4763 27.5045 25.507 28.4261 25.5224 28.795H24.0175V28.7941Z" fill="#03318C"/>
<path id="Vector_12" d="M32.5879 28.7937V23.9862C32.5879 23.1876 32.3573 22.3737 31.1599 22.3737C30.2076 22.3737 29.3629 23.1569 29.3629 23.9862V28.7937H27.7197V21.1139H29.3014V22.1123H29.3168C29.5936 21.728 30.4844 20.9141 31.774 20.9141C33.3557 20.9141 34.2311 21.7587 34.2311 23.4942V28.7928H32.5879V28.7937Z" fill="#03318C"/>
<path id="Vector_13" d="M41.2939 28.7941L41.1863 27.7803H41.1555C40.8634 28.1801 39.988 29.0094 38.7753 29.0094C37.2551 29.0094 36.3643 28.1647 36.3643 26.4292V21.1152H38.0075V25.9074C38.0075 26.7367 38.2688 27.5353 39.3893 27.5353C40.2801 27.5353 41.1094 26.7521 41.1094 25.9074V21.1152H42.7526V26.9058C42.7526 27.5045 42.7834 28.4261 42.7988 28.795H41.2939V28.7941Z" fill="#03318C"/>
<path id="Vector_14" d="M46.9308 28.9925C46.0862 28.9925 45.3184 28.8081 44.5967 28.4554L44.6735 27.1187C45.3491 27.4877 46.0563 27.7328 46.8087 27.7328C47.9301 27.7328 48.2828 27.2571 48.2828 26.7344C48.2828 26.1203 47.8216 25.8589 46.9923 25.5515L46.5013 25.367C45.4721 24.9826 44.6121 24.3993 44.6121 23.078C44.6121 21.7568 45.6258 20.9121 47.4689 20.9121C48.3136 20.9121 49.0814 21.1427 49.558 21.4032L49.4657 22.7398C48.7287 22.3247 47.9763 22.1719 47.5458 22.1719C46.655 22.1719 46.286 22.5101 46.286 23.0012C46.286 23.523 46.6858 23.8151 47.5765 24.1379L48.083 24.3224C49.1429 24.7222 49.9568 25.2747 49.9568 26.6114C49.9568 28.0855 48.943 28.9916 46.9308 28.9916V28.9925Z" fill="#03318C"/>
<path id="Vector_15" d="M56.6386 28.7941L56.531 27.7803H56.5003C56.2082 28.1801 55.3327 29.0094 54.12 29.0094C52.5998 29.0094 51.709 28.1647 51.709 26.4292V21.1152H53.3522V25.9074C53.3522 26.7367 53.6136 27.5353 54.7341 27.5353C55.6248 27.5353 56.4541 26.7521 56.4541 25.9074V21.1152H58.0974V26.9058C58.0974 27.5045 58.1281 28.4261 58.1435 28.795H56.6386V28.7941Z" fill="#03318C"/>
<path id="Vector_16" d="M64.6403 28.7937L64.5481 27.7184H64.5327C64.3021 28.1335 63.5189 28.9936 62.1524 28.9936C60.5092 28.9936 59.8174 27.9952 59.8174 26.7662C59.8174 25.1383 61.1694 24.2321 63.2422 24.2321C63.764 24.2321 64.256 24.2783 64.4405 24.309V23.5105C64.4405 22.6043 63.8264 22.2507 62.8434 22.2507C62.0294 22.2507 61.2616 22.4813 60.5083 22.834L60.4314 21.4974C61.1531 21.1438 62.0439 20.9141 63.1346 20.9141C64.8393 20.9141 66.0837 21.4359 66.0837 23.5096V26.6585C66.0837 27.3033 66.1298 28.3632 66.1452 28.7937H64.6403ZM64.4405 25.3843C64.3175 25.3535 63.934 25.3074 63.4267 25.3074C62.5513 25.3074 61.4913 25.6303 61.4913 26.6441C61.4913 27.3504 61.9679 27.7501 62.6589 27.7501C63.5958 27.7501 64.4405 26.8593 64.4405 25.8148V25.3843Z" fill="#03318C"/>
<path id="Vector_17" d="M68.3564 28.7927V17.9648H69.9997V28.7927H68.3564Z" fill="#03318C"/>
</g>
</svg>
